<svg xmlns="http://www.w3.org/2000/svg" viewBox="0 0 100 100">
  <rect width="100" height="100" fill="#000000" />
  <path d="M12 66c8-7 16-7 24 0s16 7 24 0 16-7 24 0 16 7 4 2v9H12z" fill="url(#w)" />
  <path d="M48 53c1-13 11-23 26-24 2 13-5 26-17 30-4 1.4-9 .7-12-1a13 13 0 0 1 3-5z" fill="url(#l)" />
  <path d="M29 68 48 26l18 38h-9l-2.8-6h-12.4L39 68z" fill="#ffffff" />
  <defs>
    <linearGradient id="l" x1="48" y1="53" x2="74" y2="29" gradientUnits="userSpaceOnUse">
      <stop stop-color="#3f9d33" />
      <stop offset="1" stop-color="#9fd63a" />
    </linearGradient>
    <linearGradient id="w" x1="12" y1="66" x2="88" y2="66" gradientUnits="userSpaceOnUse">
      <stop stop-color="#1f5c22" />
      <stop offset="1" stop-color="#5cb83a" />
    </linearGradient>
  </defs>
</svg>
