<svg xmlns="http://www.w3.org/2000/svg" viewBox="0 0 100 100">
  <rect width="100" height="100" fill="#000000" />
  <path d="M14 62c10-6 20-6 30 0s20 6 30 0 12-4 16-2v10c-6 4-14 4-20 0s-18-6-28 0-18 6-28-2z" fill="url(#w)" />
  <path d="M49 56c2-13 12-22 26-23 1 13-6 25-18 29-4 1.3-8 .6-11-1a12 12 0 0 1 3-5z" fill="url(#l)" />
  <path d="M30 68 49 28l19 40h-9.5l-3-6.2h-13L39.5 68z" fill="#ffffff" />
  <defs>
    <linearGradient id="l" x1="49" y1="56" x2="75" y2="33" gradientUnits="userSpaceOnUse">
      <stop stop-color="#3f9d33" />
      <stop offset="1" stop-color="#9fd63a" />
    </linearGradient>
    <linearGradient id="w" x1="14" y1="62" x2="90" y2="62" gradientUnits="userSpaceOnUse">
      <stop stop-color="#1f5c22" />
      <stop offset="1" stop-color="#6bbf3c" />
    </linearGradient>
  </defs>
</svg>
